<?xml version="1.0" standalone="no"?>
<!DOCTYPE svg PUBLIC "-//W3C//DTD SVG 20010904//EN"
 "http://www.w3.org/TR/2001/REC-SVG-20010904/DTD/svg10.dtd">
<svg version="1.0" xmlns="http://www.w3.org/2000/svg"
 width="1416.000000pt" height="797.000000pt" viewBox="0 0 1416.000000 797.000000"
 preserveAspectRatio="xMidYMid meet">
<metadata>
Created by potrace 1.15, written by Peter Selinger 2001-2017
</metadata>
<g transform="translate(0.000000,797.000000) scale(0.100000,-0.100000)"
fill="#000000" stroke="none">
<path d="M0 3985 l0 -3985 7080 0 7080 0 0 3985 0 3985 -619 0 -619 0 -17 -52
c-9 -29 -26 -87 -36 -128 -11 -41 -24 -84 -29 -95 -5 -11 -18 -54 -29 -95 -50
-186 -73 -266 -81 -285 -5 -11 -18 -54 -29 -95 -11 -41 -34 -122 -51 -180 -17
-58 -40 -139 -51 -180 -11 -41 -23 -82 -26 -90 -3 -8 -7 -19 -9 -25 -1 -5 -14
-50 -28 -100 -33 -114 -31 -107 -56 -190 -12 -38 -23 -77 -25 -85 -4 -16 -52
-184 -60 -210 -2 -8 -16 -55 -31 -105 -38 -132 -80 -280 -104 -365 -12 -41
-25 -84 -30 -95 -5 -11 -16 -49 -25 -85 -9 -36 -19 -72 -22 -80 -3 -8 -7 -22
-9 -30 -4 -23 -44 -163 -51 -180 -4 -8 -7 -17 -8 -20 -8 -35 -49 -157 -54
-165 -4 -5 -16 -32 -26 -60 -15 -43 -44 -102 -104 -214 -40 -76 -146 -208
-240 -301 -140 -139 -296 -242 -446 -295 -27 -9 -59 -21 -70 -26 -21 -9 -167
-44 -232 -55 -55 -10 -393 -17 -393 -9 0 4 28 37 63 74 96 102 172 226 229
371 30 77 58 192 58 237 l0 25 -77 -6 c-43 -4 -100 -11 -128 -16 -27 -6 -135
-19 -240 -30 -104 -11 -224 -24 -265 -30 -41 -5 -160 -19 -265 -30 -143 -15
-501 -56 -522 -60 -2 0 -3 -7 -3 -15 0 -8 11 -17 25 -21 14 -3 25 -10 25 -15
0 -5 7 -9 15 -9 29 0 428 -205 580 -298 28 -17 70 -43 95 -58 87 -52 246 -159
323 -216 43 -32 80 -58 84 -58 3 0 47 -33 97 -73 50 -39 116 -91 146 -114 95
-72 399 -342 532 -472 137 -133 138 -135 76 -167 -15 -8 -31 -15 -35 -15 -5 0
-15 -6 -23 -13 -8 -8 -49 -32 -90 -55 -41 -24 -124 -71 -185 -107 -60 -35
-119 -68 -130 -73 -16 -7 -23 -25 -33 -85 -7 -41 -17 -78 -23 -81 -5 -4 -9
-14 -9 -23 0 -34 -82 -179 -138 -244 -121 -141 -317 -265 -487 -308 -27 -7
-68 -18 -90 -25 -73 -24 -262 -38 -408 -32 -77 3 -141 8 -143 10 -2 2 16 43
41 92 84 163 143 407 105 430 -34 21 -370 -6 -490 -40 -25 -7 -71 -20 -103
-29 -32 -9 -78 -25 -102 -36 -24 -11 -48 -20 -52 -20 -20 0 -213 -103 -213
-114 0 -7 14 -25 31 -42 18 -16 47 -62 66 -102 32 -70 34 -76 31 -180 -1 -63
3 -125 11 -151 15 -51 51 -91 83 -91 42 1 170 72 247 138 l54 46 28 -35 c81
-98 149 -295 149 -431 l0 -69 43 -20 c54 -26 133 -75 182 -115 l39 -31 -55
-27 c-31 -14 -59 -26 -62 -26 -3 0 -26 -13 -50 -30 -25 -16 -49 -30 -54 -30
-17 0 -108 -94 -146 -150 -21 -30 -49 -92 -63 -137 -33 -108 -33 -247 1 -379
13 -49 22 -91 20 -93 -3 -2 -10 1 -17 6 -7 5 -52 26 -100 46 -173 73 -354 93
-494 53 -111 -32 -176 -70 -266 -156 -54 -52 -96 -105 -138 -174 -47 -78 -61
-95 -66 -80 -19 57 -110 234 -199 386 -106 183 -272 401 -435 572 -67 71 -234
219 -303 271 -120 89 -271 188 -382 250 -77 43 -300 155 -309 155 -3 0 -34 13
-68 29 -35 15 -106 45 -158 65 -52 21 -104 42 -115 47 -19 9 -68 26 -225 78
-36 12 -72 25 -80 28 -8 4 -17 7 -20 8 -3 1 -12 4 -20 7 -17 6 -235 75 -360
114 -47 14 -118 37 -159 50 -40 13 -77 24 -81 24 -5 0 -21 5 -37 12 -32 13
-26 11 -83 27 -25 7 -83 25 -130 41 -47 15 -130 42 -185 60 -105 34 -252 89
-320 120 -96 44 -234 113 -285 141 -30 17 -68 38 -85 47 -16 9 -58 35 -93 59
-35 24 -66 43 -69 43 -8 0 -162 119 -231 177 -113 98 -156 140 -226 223 -150
180 -181 225 -266 400 -28 58 -55 112 -60 122 -19 36 -79 199 -85 232 -8 42
-13 43 -135 34 -159 -13 -161 -14 -157 -51 3 -18 7 -39 10 -47 3 -8 13 -42 22
-75 9 -33 19 -67 22 -75 3 -8 7 -17 8 -20 2 -6 20 -50 49 -114 34 -78 106
-215 143 -274 19 -30 31 -58 26 -63 -4 -4 -59 -13 -122 -19 -126 -13 -331 -1
-431 24 -162 42 -170 44 -315 111 -161 73 -354 241 -452 393 -73 112 -145 280
-157 362 -1 9 -5 20 -8 26 -14 23 -30 233 -23 315 7 94 19 154 60 299 15 52
38 136 51 185 13 50 27 97 31 105 3 8 16 53 29 100 41 154 75 275 81 290 7 17
55 187 84 300 11 41 24 84 29 95 8 17 21 65 51 185 3 13 -8 15 -71 12 -41 -2
-97 -7 -125 -12 -27 -5 -142 -19 -255 -30 -113 -12 -218 -23 -235 -25 -16 -2
-61 -7 -99 -11 l-68 -7 7 34 c4 18 11 40 16 49 5 8 18 49 28 90 35 133 72 265
78 280 4 8 17 53 30 100 13 47 25 92 28 100 14 44 111 386 136 480 11 41 23
84 28 95 5 11 14 39 20 61 11 41 12 42 64 48 28 3 201 15 384 26 182 11 337
22 345 24 7 2 63 7 123 10 317 18 769 46 788 51 12 2 146 11 297 20 151 8 325
19 385 25 99 9 253 19 745 50 85 5 209 14 275 20 66 5 239 17 385 26 146 8
285 17 310 19 329 23 505 35 600 40 63 3 160 10 215 15 116 11 170 14 520 35
143 8 312 19 375 25 63 5 147 12 185 15 76 6 559 37 640 41 28 1 77 5 110 8
33 3 137 10 230 16 285 17 464 29 595 40 104 8 312 22 695 46 33 2 152 10 265
18 113 8 261 17 330 21 69 3 168 10 220 15 105 10 136 12 590 40 173 11 367
25 430 30 99 8 546 37 710 45 30 2 109 8 175 14 66 6 146 11 178 11 31 0 57 5
57 10 0 7 -2145 10 -6415 10 l-6415 0 0 -3985z"/>
<path d="M12485 7799 c-66 -5 -219 -16 -340 -24 -216 -15 -576 -39 -765 -50
-52 -3 -144 -10 -205 -15 -60 -5 -189 -14 -285 -20 -96 -6 -301 -20 -455 -30
-154 -11 -388 -27 -520 -35 -132 -8 -366 -24 -520 -35 -154 -10 -359 -24 -455
-30 -96 -6 -229 -15 -295 -20 -66 -5 -194 -14 -285 -20 -91 -6 -325 -21 -520
-35 -195 -13 -436 -29 -535 -35 -99 -6 -198 -13 -220 -15 -22 -3 -186 -14
-365 -25 -179 -11 -381 -25 -450 -30 -69 -5 -269 -19 -445 -30 -176 -11 -444
-29 -595 -40 -151 -10 -354 -24 -450 -30 -96 -6 -196 -13 -221 -15 -26 -3
-190 -14 -365 -25 -176 -11 -411 -27 -524 -35 -113 -8 -347 -24 -520 -35 -173
-11 -337 -22 -365 -25 -27 -3 -198 -14 -380 -25 -181 -12 -379 -25 -440 -30
-60 -6 -135 -10 -165 -10 -30 0 -61 -4 -68 -9 -7 -4 -72 -212 -144 -462 -144
-502 -164 -576 -156 -584 3 -3 56 1 119 9 63 8 159 19 214 25 211 23 373 41
440 50 39 5 71 7 73 6 2 -2 -8 -41 -22 -86 -14 -46 -50 -174 -81 -284 -31
-110 -79 -279 -107 -375 -27 -96 -61 -213 -73 -260 -13 -47 -57 -202 -98 -345
-83 -291 -102 -398 -94 -524 17 -243 119 -466 291 -637 171 -170 365 -266 631
-313 63 -11 231 -19 239 -11 2 3 -22 59 -55 125 -32 66 -76 174 -98 240 -43
132 -87 322 -76 333 3 4 55 12 113 18 264 28 697 77 700 80 2 1 -16 35 -40 76
-24 40 -52 92 -63 116 -17 40 -21 43 -49 38 -31 -5 -195 -24 -431 -50 -66 -7
-123 -12 -126 -10 -4 2 2 34 13 71 10 38 29 106 42 153 13 47 79 281 146 520
122 436 157 559 190 680 87 317 116 387 200 474 115 120 212 153 580 196 452
53 730 83 735 78 3 -3 -6 -43 -19 -89 -13 -46 -52 -183 -86 -304 -34 -121 -86
-308 -116 -415 -64 -224 -142 -502 -209 -740 -26 -91 -60 -194 -77 -230 -42
-88 -132 -176 -223 -219 -63 -30 -251 -81 -300 -81 -22 0 -180 92 -269 157
-33 23 -62 41 -64 38 -9 -9 88 -133 159 -204 130 -130 291 -251 509 -381 112
-67 431 -228 552 -278 40 -17 94 -40 120 -51 l47 -20 -43 -91 c-23 -49 -45
-92 -48 -95 -5 -5 -148 42 -273 89 -230 87 -613 274 -829 404 -66 40 -121 70
-124 67 -19 -19 256 -293 412 -409 275 -205 579 -375 954 -535 182 -77 406
-161 432 -161 10 0 32 17 47 37 41 53 178 171 277 237 325 216 766 332 1281
337 143 1 127 9 -75 39 -466 68 -977 38 -1404 -82 -110 -30 -281 -89 -318
-109 -11 -6 -22 -9 -24 -6 -9 9 105 237 162 323 63 96 199 244 276 301 44 32
51 34 66 21 55 -47 244 -144 452 -233 l149 -63 75 43 c228 130 426 317 532
503 24 42 44 82 44 88 0 7 -33 -10 -74 -36 -90 -60 -265 -148 -377 -191 -116
-44 -227 -46 -344 -5 -169 59 -356 166 -571 327 -137 103 -137 104 -29 96 50
-4 153 -2 231 4 l141 11 99 -30 c120 -37 327 -77 476 -93 109 -12 327 -8 361
6 20 9 23 25 3 25 -37 0 -371 150 -431 193 -15 12 12 24 229 96 136 45 269 85
296 88 46 5 105 -4 165 -27 l27 -10 -42 -48 c-23 -26 -53 -68 -66 -94 -23 -46
-59 -176 -51 -184 2 -2 36 27 75 65 74 71 185 150 257 182 40 18 44 18 136 -1
52 -11 104 -20 117 -20 12 0 22 -4 22 -10 0 -5 -6 -10 -12 -10 -40 0 -221 -87
-303 -145 -213 -151 -256 -327 -141 -572 103 -217 317 -399 628 -533 43 -19
80 -31 84 -28 3 4 -21 38 -54 77 -229 273 -340 585 -275 777 35 103 188 221
440 340 118 56 118 56 188 49 105 -10 362 -59 520 -99 678 -171 1336 -508
1898 -974 119 -98 312 -277 332 -308 l16 -25 -373 3 -373 3 -65 39 c-36 22
-96 62 -133 89 -37 27 -70 47 -73 45 -5 -5 68 -216 87 -254 8 -15 28 -25 67
-34 31 -7 83 -21 117 -31 33 -10 121 -34 195 -54 74 -20 155 -43 180 -50 25
-8 83 -24 129 -36 l83 -22 -6 -49 c-13 -93 -44 -157 -111 -226 l-63 -64 -38
25 c-22 13 -149 97 -284 186 l-245 161 -145 0 c-561 -1 -1161 -239 -1419 -564
-60 -75 -112 -177 -136 -266 -38 -139 -14 -334 61 -498 37 -82 143 -247 195
-304 l34 -38 60 29 c116 57 230 60 392 10 68 -21 183 -74 183 -85 0 -3 -13
-22 -30 -42 -43 -55 -78 -138 -91 -222 -7 -41 -12 -76 -13 -77 -1 -1 -26 5
-56 13 -129 33 -300 1 -431 -81 -22 -15 -44 -25 -49 -23 -4 2 -52 61 -105 133
-143 190 -273 342 -423 495 l-132 135 -11 95 c-26 231 37 533 155 744 19 35
60 97 91 140 30 42 55 80 55 82 0 3 -35 -13 -77 -36 -167 -90 -340 -253 -463
-437 -63 -94 -140 -238 -140 -263 0 -17 -12 -12 -106 48 -50 31 -123 75 -162
97 -39 22 -72 45 -72 50 0 20 90 176 143 247 66 90 170 201 231 248 25 19 45
39 46 43 1 35 -339 -92 -441 -164 -14 -10 -29 -16 -32 -13 -17 18 76 228 161
359 61 96 197 276 287 381 41 48 73 89 71 91 -7 7 -187 -87 -293 -154 -305
-191 -527 -424 -683 -716 l-51 -95 -47 15 c-26 8 -114 32 -196 53 -81 21 -150
41 -153 44 -9 9 99 202 162 290 111 156 258 311 380 400 11 8 18 17 15 19 -3
3 -59 -5 -125 -18 -359 -69 -711 -212 -1011 -410 l-128 -85 -60 16 c-317 82
-704 226 -1051 394 -227 109 -395 207 -658 383 -45 31 -31 3 51 -100 301 -375
852 -727 1462 -934 151 -52 468 -155 745 -244 685 -220 888 -296 1112 -416
278 -151 506 -321 739 -554 161 -160 199 -203 299 -335 120 -159 207 -295 275
-428 18 -35 36 -60 40 -55 4 4 31 36 59 70 79 96 180 164 311 209 44 15 82 19
190 18 118 -1 145 -4 215 -27 44 -15 82 -27 85 -27 3 0 5 64 5 143 0 132 2
148 29 220 45 122 143 239 248 293 15 8 28 18 28 22 0 5 -29 24 -65 43 -46 24
-63 38 -59 49 13 35 16 151 5 217 -7 39 -26 99 -42 133 l-29 62 -28 -18 c-80
-53 -141 -85 -208 -110 l-75 -27 -57 40 c-32 22 -74 65 -97 97 l-40 58 2 126
c2 69 -2 143 -8 166 -16 62 -74 140 -147 198 l-65 52 34 29 c203 170 570 307
913 339 144 13 286 2 349 -28 35 -17 37 -20 37 -63 0 -60 -35 -267 -60 -357
-11 -38 -20 -76 -20 -82 0 -19 116 -15 237 9 263 51 463 159 578 312 78 103
114 188 136 322 16 91 -7 71 262 224 108 62 197 116 196 119 -1 15 -434 397
-609 538 -512 412 -1039 703 -1635 903 -115 38 -203 72 -195 74 8 3 62 10 120
16 58 7 204 23 325 37 121 14 315 36 430 49 601 69 762 87 1005 115 146 17
293 34 328 37 73 7 69 16 47 -127 -29 -192 -99 -384 -192 -522 -30 -44 -51
-83 -49 -86 11 -10 213 30 301 60 450 154 741 478 884 983 11 39 45 158 76
265 31 107 67 231 80 275 12 44 40 136 60 205 21 69 45 154 55 190 10 36 34
121 55 190 20 69 62 211 92 315 30 105 79 276 110 380 30 105 70 242 88 305
18 63 54 186 79 273 25 87 46 162 46 167 0 11 -72 11 -245 -1z m-180 -269
c-11 -5 -85 -16 -165 -24 -80 -9 -244 -27 -365 -41 -276 -32 -675 -78 -955
-110 -118 -14 -332 -38 -475 -55 -143 -17 -377 -44 -520 -60 -143 -16 -377
-43 -520 -60 -143 -17 -339 -39 -435 -50 -96 -11 -312 -36 -480 -55 -168 -20
-399 -47 -515 -60 -115 -13 -329 -38 -475 -55 -146 -17 -362 -41 -480 -55
-118 -14 -332 -38 -475 -55 -143 -17 -357 -41 -475 -55 -118 -14 -334 -38
-480 -55 -382 -45 -743 -86 -990 -115 -118 -13 -336 -38 -485 -55 -148 -17
-400 -46 -558 -64 -158 -19 -289 -35 -291 -37 -2 -2 -45 -146 -94 -319 -50
-173 -156 -544 -237 -825 -206 -717 -204 -710 -230 -815 -86 -352 -91 -673
-13 -893 12 -31 19 -59 17 -62 -7 -6 -164 70 -216 106 -155 105 -259 246 -309
419 -28 96 -25 332 4 455 12 50 136 488 275 975 182 634 250 886 241 888 -7 2
-75 -4 -151 -13 -409 -48 -565 -66 -625 -72 l-68 -6 9 29 c13 39 41 136 96
334 26 91 48 166 50 168 2 3 119 11 650 47 209 14 511 34 670 45 160 11 360
24 445 30 85 6 286 19 445 30 160 10 398 26 530 35 132 8 265 17 295 20 30 2
91 7 135 10 44 2 150 9 235 15 85 6 286 19 445 30 160 11 362 24 450 30 88 6
327 21 530 35 204 14 503 34 665 45 162 11 365 24 450 30 85 5 286 19 445 30
160 10 396 26 525 35 129 8 264 17 300 20 36 3 171 12 300 20 129 9 366 25
525 35 160 11 364 25 455 30 91 6 255 17 365 25 110 8 277 19 370 25 94 6 294
19 445 30 151 10 358 24 460 30 102 6 199 12 215 14 56 5 60 5 40 -4z m5 -251
c0 -12 -15 -66 -60 -224 -16 -55 -58 -203 -94 -330 -36 -126 -112 -396 -170
-600 -57 -203 -139 -491 -181 -640 -82 -288 -105 -355 -167 -479 -56 -112
-110 -190 -197 -279 -67 -70 -176 -155 -186 -145 -2 2 5 33 15 70 66 238 48
660 -45 1078 -34 152 -126 480 -135 480 -4 0 -42 -123 -84 -272 -43 -150 -109
-385 -148 -523 -39 -137 -73 -253 -77 -257 -7 -8 -434 -59 -440 -52 -2 2 12
61 32 131 277 982 494 1746 517 1824 l20 67 42 6 c150 21 400 47 404 43 7 -7
194 -944 194 -970 0 -10 5 -17 11 -15 12 4 15 16 174 578 147 522 125 464 176
473 58 10 336 44 372 46 15 0 27 -4 27 -10z m-1710 -198 c0 -4 -14 -57 -31
-117 -82 -296 -102 -364 -119 -424 -10 -36 -51 -180 -90 -320 -229 -817 -238
-847 -277 -922 -68 -130 -185 -215 -353 -257 -47 -12 -184 -33 -305 -47 -633
-72 -730 -83 -734 -79 -4 4 23 108 80 305 10 36 46 164 79 285 34 121 86 306
115 410 30 105 81 289 115 410 33 121 72 253 87 293 73 207 214 318 461 361
32 6 215 29 407 51 193 22 384 44 425 48 103 13 140 14 140 3z m-1660 -188
c-1 -5 -13 -53 -29 -108 -15 -55 -49 -179 -76 -275 -27 -96 -51 -179 -55 -183
-4 -4 -96 24 -206 63 -170 61 -206 70 -244 66 -25 -3 -121 -15 -215 -27 -93
-11 -173 -23 -176 -27 -9 -10 -120 -415 -115 -419 2 -3 105 7 228 22 474 55
652 74 656 70 2 -2 -37 -151 -88 -332 -51 -180 -103 -366 -115 -413 -83 -299
-174 -406 -406 -478 -67 -21 -67 -21 -185 -2 -66 11 -204 28 -309 39 -187 20
-331 45 -443 77 -31 9 -58 18 -60 19 -3 3 78 305 84 314 2 2 42 -10 91 -27 48
-17 140 -48 203 -70 l115 -40 110 13 c61 7 158 19 217 26 l106 12 51 181 c28
100 54 196 57 215 l7 33 -39 -6 c-21 -3 -140 -17 -264 -31 -124 -14 -301 -34
-395 -45 -203 -24 -185 -23 -185 -8 0 12 34 139 100 373 16 55 45 161 65 235
84 312 122 397 213 482 52 49 98 76 184 108 93 34 138 41 698 106 124 15 252
30 285 34 84 10 135 11 135 3z m-1655 -195 c-5 -18 -114 -404 -290 -1033 -37
-132 -93 -330 -124 -440 l-57 -200 -105 -26 c-57 -14 -156 -40 -219 -58 -548
-150 -1010 -210 -1420 -182 -160 11 -337 33 -373 46 -11 5 -17 2 -17 -7 0 -20
85 -138 169 -236 39 -45 66 -82 59 -82 -7 0 -101 -11 -208 -24 -107 -14 -198
-22 -202 -20 -4 2 -1 23 7 47 7 23 28 94 45 157 32 115 83 301 165 590 24 85
59 211 79 280 19 69 55 197 80 285 96 341 165 591 173 624 7 27 15 37 39 42
47 11 424 53 429 47 3 -2 -1 -24 -9 -49 -8 -24 -28 -93 -45 -154 -29 -105
-101 -363 -216 -770 -29 -104 -77 -273 -105 -375 -28 -102 -58 -206 -65 -232
l-14 -48 32 0 c28 0 208 19 339 36 l48 7 24 81 c13 44 65 227 115 406 51 179
99 348 107 375 21 72 156 552 189 672 28 99 30 103 59 108 83 13 418 46 423
42 5 -6 -23 -108 -261 -952 -146 -513 -187 -667 -182 -672 7 -8 399 36 408 45
7 7 46 141 184 632 30 107 68 240 84 295 16 55 66 231 111 390 45 160 85 297
89 305 6 11 56 20 192 36 228 26 269 28 263 12z m-2085 -2468 l34 -30 -70 -64
c-39 -36 -111 -110 -159 -166 -88 -101 -89 -102 -127 -96 -98 16 -758 250
-744 264 3 3 97 16 209 28 111 12 326 37 477 53 151 17 282 33 290 35 36 9 57
3 90 -24z m4946 -1756 c46 -36 84 -69 84 -73 0 -14 -75 -50 -148 -70 -39 -11
-72 -16 -72 -11 0 5 6 39 14 77 8 37 17 85 20 106 4 20 9 37 13 37 3 0 43 -29
89 -66z m-1636 -364 c69 -69 75 -88 75 -245 0 -134 1 -142 27 -185 15 -25 40
-60 57 -78 17 -18 31 -36 31 -39 0 -9 -113 8 -150 23 -51 22 -78 51 -116 127
-77 151 -84 301 -20 425 15 28 19 31 37 21 11 -6 38 -28 59 -49z"/>
<path d="M9798 6626 c-103 -12 -190 -25 -193 -28 -6 -6 -28 -79 -104 -353
-153 -545 -213 -759 -231 -820 -19 -65 -18 -79 8 -71 10 3 105 15 212 26 107
12 196 23 197 24 3 3 31 99 113 391 34 121 81 290 105 375 39 137 80 287 120
433 l13 47 -26 -1 c-15 -1 -111 -12 -214 -23z"/>
<path d="M3943 5956 c-100 -12 -186 -25 -191 -31 -5 -5 -40 -118 -77 -250 -36
-132 -73 -260 -80 -285 -7 -25 -35 -121 -61 -215 -25 -93 -66 -239 -90 -324
-24 -85 -41 -158 -38 -162 2 -4 10 -6 17 -4 7 3 100 14 207 25 107 12 198 24
202 28 4 4 21 57 38 117 17 61 47 166 66 235 20 69 46 163 59 210 23 82 41
146 139 497 25 90 46 167 46 173 0 13 -14 12 -237 -14z"/>
<path d="M8465 4275 c-250 -58 -481 -168 -661 -316 -61 -49 -115 -109 -100
-109 3 0 53 16 113 35 194 62 367 89 414 65 27 -15 25 -67 -6 -124 -14 -26
-25 -49 -25 -51 0 -2 22 -1 48 2 132 15 339 -54 534 -179 l78 -50 70 11 c85
13 160 41 219 80 l44 30 43 -25 c52 -31 133 -45 184 -32 51 13 108 63 131 112
19 42 25 152 11 188 -6 15 -13 9 -42 -30 -23 -30 -54 -57 -90 -75 -49 -25 -63
-28 -124 -24 -55 4 -84 13 -150 46 -103 52 -181 115 -386 314 -109 105 -170
157 -184 156 -12 0 -66 -11 -121 -24z m218 -271 c74 -64 77 -68 61 -85 -20
-23 -63 -25 -90 -4 -29 22 -31 19 -24 -35 4 -27 4 -50 2 -50 -3 0 -20 9 -38
21 -18 11 -61 23 -96 27 -60 7 -63 8 -59 32 9 69 92 149 162 159 3 1 40 -29
82 -65z"/>
<path d="M8555 3309 c-128 -11 -371 -53 -500 -85 -137 -35 -343 -102 -351
-115 -4 -7 0 -9 12 -5 108 33 426 80 684 100 107 9 214 18 238 20 53 5 65 -9
14 -19 -92 -17 -355 -114 -524 -193 -174 -82 -517 -282 -483 -282 6 0 75 25
155 56 298 115 523 193 725 253 272 81 291 80 122 -7 -72 -37 -174 -94 -226
-126 -96 -60 -270 -195 -306 -236 l-20 -24 32 20 c18 10 76 46 130 78 197 120
456 239 648 297 218 67 489 104 690 94 l120 -5 -55 21 c-186 71 -447 139 -610
159 -98 12 -350 11 -495 -1z"/>
</g>
</svg>
